# xmcd CD database file
#
# Track frame offsets:
#	150
#	18955
#	42344
#	57022
#	77690
#	92524
#	111410
#	129321
#	147242
#	173891
#	196073
#	216169
#
# Disc length: 3205 seconds
#
# Revision: 1
# Processed by: cddbd v1.5.2PL0 Copyright (c) Steve Scherf et al.
# Submitted via: CDex 1.70beta2
#
DISCID=9b0c830c
DTITLE=Scott Ellison - Cold Hard Cash
DYEAR=2001
DGENRE=Blues
TTITLE0=Loaded Gun Tonight
TTITLE1=Behind That Smile
TTITLE2=I Wish I Had A Dime
TTITLE3=Up In Flames
TTITLE4=Cold Hard Cash
TTITLE5=I Wish I Knew
TTITLE6=Whistlin' In The Graveyard
TTITLE7=She Works For Me
TTITLE8=Let's Think Twice
TTITLE9=Jenny's In Love
TTITLE10=Love Ran Out
TTITLE11=The Ghost Of You
EXTD=YEAR: 2001
EXTT0=
EXTT1=
EXTT2=
EXTT3=
EXTT4=
EXTT5=
EXTT6=
EXTT7=
EXTT8=
EXTT9=
EXTT10=
EXTT11=
PLAYORDER=
